<svg xmlns="http://www.w3.org/2000/svg" width="1007" height="216" fill="none"><path fill="url(#a)" d="M50.826 176.88c-10.24 0-19.12-2.32-26.64-6.96-7.52-4.64-13.36-11.84-17.52-21.6-4-9.76-6-22.32-6-37.68 0-15.2 2.08-27.6 6.24-37.2 4.16-9.76 9.92-16.96 17.28-21.6 7.36-4.64 15.68-6.96 24.96-6.96 5.76 0 11.04.64 15.84 1.92 4.8 1.28 9.04 3.28 12.72 6 3.68 2.56 6.8 5.76 9.36 9.6h1.44V.48h29.28V174h-24.24l-2.4-16.8h-1.68c-4 6.56-9.44 11.52-16.32 14.88-6.72 3.2-14.16 4.8-22.32 4.8Zm9.12-25.2c6.72 0 12.16-1.52 16.32-4.56 4.16-3.04 7.2-7.44 9.12-13.2 2.08-5.76 3.12-12.8 3.12-21.12v-3.12c0-6.24-.56-11.84-1.68-16.8-1.12-4.96-2.88-9.12-5.28-12.48-2.24-3.36-5.2-5.92-8.88-7.68-3.52-1.76-7.76-2.64-12.72-2.64-7.2 0-12.96 1.44-17.28 4.32-4.16 2.72-7.2 7.04-9.12 12.96-1.76 5.76-2.64 13.12-2.64 22.08v3.36c0 8.8.88 16.08 2.64 21.84 1.92 5.76 4.96 10.08 9.12 12.96 4.32 2.72 10.08 4.08 17.28 4.08Z"/><path fill="url(#b)" d="M191.178 176.88c-13.44 0-24.64-2.32-33.6-6.96-8.96-4.8-15.68-12.08-20.16-21.84s-6.72-22.16-6.72-37.2c0-15.2 2.24-27.6 6.72-37.2 4.48-9.76 11.2-16.96 20.16-21.6 8.96-4.8 20.16-7.2 33.6-7.2 12.16 0 22.32 2.32 30.48 6.96 8.32 4.48 14.56 11.44 18.72 20.88 4.16 9.44 6.24 21.68 6.24 36.72v8.64h-85.92c.32 7.84 1.52 14.48 3.6 19.92 2.08 5.28 5.28 9.28 9.6 12 4.48 2.56 10.32 3.84 17.52 3.84 3.68 0 7.12-.48 10.32-1.44s6-2.4 8.4-4.32c2.4-2.08 4.24-4.64 5.52-7.68 1.44-3.04 2.16-6.56 2.16-10.56h28.8c0 8-1.44 14.96-4.32 20.88-2.72 5.92-6.64 10.8-11.76 14.64-4.96 3.84-10.8 6.72-17.52 8.64-6.72 1.92-14 2.88-21.84 2.88Zm-30-79.44h54.96c0-5.28-.64-9.76-1.92-13.44-1.12-3.68-2.8-6.72-5.04-9.12-2.08-2.4-4.64-4.08-7.68-5.04-3.04-1.12-6.48-1.68-10.32-1.68-6.24 0-11.52 1.04-15.84 3.12-4.16 2.08-7.36 5.28-9.6 9.6-2.24 4.32-3.76 9.84-4.56 16.56Z"/><path fill="url(#c)" d="M259.469 215.52V47.76h24.24l2.4 16.8h1.68c4.16-6.56 9.6-11.44 16.32-14.64 6.72-3.36 14.16-5.04 22.32-5.04 10.4 0 19.28 2.32 26.64 6.96 7.52 4.64 13.28 11.84 17.28 21.6 4.16 9.76 6.24 22.32 6.24 37.68 0 15.04-2.08 27.44-6.24 37.2-4.16 9.76-9.92 16.96-17.28 21.6-7.2 4.64-15.52 6.96-24.96 6.96-5.76 0-11.04-.64-15.84-1.92-4.8-1.28-9.04-3.2-12.72-5.76-3.68-2.72-6.8-6-9.36-9.84h-1.44v56.16h-29.28Zm57.84-63.84c7.2 0 12.88-1.36 17.04-4.08 4.32-2.88 7.36-7.2 9.12-12.96 1.92-5.76 2.88-13.04 2.88-21.84v-3.36c0-8.96-.96-16.32-2.88-22.08-1.76-5.92-4.8-10.24-9.12-12.96-4.16-2.88-9.84-4.32-17.04-4.32-6.56 0-12 1.52-16.32 4.56-4.16 3.04-7.28 7.52-9.36 13.44-1.92 5.76-2.88 12.88-2.88 21.36v2.88c0 6.24.56 11.84 1.68 16.8 1.12 4.8 2.8 8.88 5.04 12.24 2.4 3.36 5.36 5.92 8.88 7.68 3.68 1.76 8 2.64 12.96 2.64Z"/><path fill="url(#d)" d="M389.5 174V47.76h24.48l2.4 19.92h1.68c1.6-4 3.52-7.68 5.76-11.04 2.4-3.52 5.44-6.32 9.12-8.4 3.68-2.24 8.16-3.36 13.44-3.36 2.56 0 4.88.24 6.96.72 2.24.48 3.92.96 5.04 1.44v27.6h-8.88c-4.96 0-9.36.72-13.2 2.16-3.84 1.28-7.12 3.36-9.84 6.24-2.56 2.88-4.48 6.48-5.76 10.8-1.28 4.32-1.92 9.36-1.92 15.12V174H389.5Z"/><path fill="url(#e)" d="M516.349 176.88c-13.44 0-24.64-2.32-33.6-6.96-8.96-4.8-15.68-12.08-20.16-21.84s-6.72-22.16-6.72-37.2c0-15.2 2.24-27.6 6.72-37.2 4.48-9.76 11.2-16.96 20.16-21.6 8.96-4.8 20.16-7.2 33.6-7.2 12.16 0 22.32 2.32 30.48 6.96 8.32 4.48 14.56 11.44 18.72 20.88 4.16 9.44 6.24 21.68 6.24 36.72v8.64h-85.92c.32 7.84 1.52 14.48 3.6 19.92 2.08 5.28 5.28 9.28 9.6 12 4.48 2.56 10.32 3.84 17.52 3.84 3.68 0 7.12-.48 10.32-1.44s6-2.4 8.4-4.32c2.4-2.08 4.24-4.64 5.52-7.68 1.44-3.04 2.16-6.56 2.16-10.56h28.8c0 8-1.44 14.96-4.32 20.88-2.72 5.92-6.64 10.8-11.76 14.64-4.96 3.84-10.8 6.72-17.52 8.64-6.72 1.92-14 2.88-21.84 2.88Zm-30-79.44h54.96c0-5.28-.64-9.76-1.92-13.44-1.12-3.68-2.8-6.72-5.04-9.12-2.08-2.4-4.64-4.08-7.68-5.04-3.04-1.12-6.48-1.68-10.32-1.68-6.24 0-11.52 1.04-15.84 3.12-4.16 2.08-7.36 5.28-9.6 9.6-2.24 4.32-3.76 9.84-4.56 16.56Z"/><path fill="url(#f)" d="M584.641 174V47.76h24.48l2.4 16.8h1.68c2.72-3.84 5.84-7.2 9.36-10.08 3.52-3.04 7.52-5.36 12-6.96 4.64-1.76 9.68-2.64 15.12-2.64 7.36 0 13.92 1.52 19.68 4.56 5.76 3.04 10.24 8.08 13.44 15.12h1.68c2.72-3.84 5.92-7.2 9.6-10.08 3.68-3.04 7.92-5.36 12.72-6.96 4.8-1.76 10-2.64 15.6-2.64 7.52 0 14.16 1.36 19.92 4.08 5.76 2.72 10.32 7.2 13.68 13.44 3.36 6.24 5.04 14.56 5.04 24.96V174h-29.28V93.36c0-4.32-.48-7.92-1.44-10.8-.96-3.04-2.32-5.36-4.08-6.96-1.6-1.76-3.68-3.04-6.24-3.84-2.4-.8-5.04-1.2-7.92-1.2-4.64 0-8.8 1.28-12.48 3.84-3.68 2.56-6.64 6.08-8.88 10.56-2.08 4.48-3.12 9.68-3.12 15.6V174h-29.28V93.36c0-4.32-.48-7.92-1.44-10.8-.96-3.04-2.32-5.36-4.08-6.96-1.6-1.76-3.68-3.04-6.24-3.84-2.4-.8-5.04-1.2-7.92-1.2-4.64 0-8.88 1.28-12.72 3.84-3.68 2.56-6.64 6.08-8.88 10.56-2.08 4.48-3.12 9.68-3.12 15.6V174h-29.28Z"/><path fill="#2C2E3C" d="M784.399 174v-30.72h30.48V174h-30.48ZM839.312 28.32V.48h29.281v27.84h-29.281Zm0 145.68V47.76h29.281V174h-29.281ZM943.941 176.88c-13.76 0-25.28-2.32-34.56-6.96-9.28-4.8-16.24-12.08-20.88-21.84-4.64-9.76-6.96-22.16-6.96-37.2 0-15.2 2.32-27.6 6.96-37.2 4.64-9.76 11.6-16.96 20.88-21.6 9.28-4.8 20.8-7.2 34.56-7.2 13.92 0 25.44 2.4 34.56 7.2 9.28 4.64 16.24 11.84 20.88 21.6 4.639 9.6 6.959 22 6.959 37.2 0 15.04-2.32 27.44-6.959 37.2-4.64 9.76-11.6 17.04-20.88 21.84-9.12 4.64-20.64 6.96-34.56 6.96Zm0-24c7.68 0 13.84-1.44 18.48-4.32 4.8-3.04 8.24-7.52 10.32-13.44 2.24-6.08 3.36-13.6 3.36-22.56v-3.36c0-8.96-1.12-16.4-3.36-22.32-2.08-6.08-5.52-10.56-10.32-13.44-4.64-3.04-10.8-4.56-18.48-4.56s-13.92 1.52-18.72 4.56c-4.64 2.88-8.08 7.36-10.32 13.44-2.08 5.92-3.12 13.36-3.12 22.32v3.36c0 8.96 1.04 16.48 3.12 22.56 2.24 5.92 5.68 10.4 10.32 13.44 4.8 2.88 11.04 4.32 18.72 4.32Z"/><defs><linearGradient id="a" x1="104.324" x2="504.023" y1="99.68" y2="225.707" gradientUnits="userSpaceOnUse"><stop stop-color="#FF5761"/><stop offset="1" stop-color="#4765FF"/></linearGradient><linearGradient id="b" x1="104.324" x2="504.023" y1="99.68" y2="225.707" gradientUnits="userSpaceOnUse"><stop stop-color="#FF5761"/><stop offset="1" stop-color="#4765FF"/></linearGradient><linearGradient id="c" x1="104.324" x2="504.023" y1="99.68" y2="225.707" gradientUnits="userSpaceOnUse"><stop stop-color="#FF5761"/><stop offset="1" stop-color="#4765FF"/></linearGradient><linearGradient id="d" x1="104.324" x2="504.023" y1="99.68" y2="225.707" gradientUnits="userSpaceOnUse"><stop stop-color="#FF5761"/><stop offset="1" stop-color="#4765FF"/></linearGradient><linearGradient id="e" x1="104.324" x2="504.023" y1="99.68" y2="225.707" gradientUnits="userSpaceOnUse"><stop stop-color="#FF5761"/><stop offset="1" stop-color="#4765FF"/></linearGradient><linearGradient id="f" x1="104.324" x2="504.023" y1="99.68" y2="225.707" gradientUnits="userSpaceOnUse"><stop stop-color="#FF5761"/><stop offset="1" stop-color="#4765FF"/></linearGradient></defs></svg>